HIERARCHY
ROOT Hips
{
    OFFSET 0.0 0.0 0.0
    CHANNELS 6 Xposition Yposition Zposition Zrotation Xrotation Yrotation
    JOINT LeftHipJoint
    {
        OFFSET 0.1 0.0 0.0
        CHANNELS 3 Zrotation Xrotation Yrotation
        JOINT LeftUpLeg
        {
            OFFSET 0.11917220056056976 0.0 0.0
            CHANNELS 3 Zrotation Xrotation Yrotation
            JOINT LeftLeg
            {
                OFFSET 0.0 0.0 -0.4279662072658539
                CHANNELS 3 Zrotation Xrotation Yrotation
                JOINT LeftFoot
                {
                    OFFSET 0.0 0.0 -0.44216209650039673
                    CHANNELS 3 Zrotation Xrotation Yrotation
                    End Site
                    {
                        OFFSET 0.0 -0.1 0.0
                    }
                }
            }
        }
    }
    JOINT LowerBack
    {
        OFFSET 0.0 0.0 0.1
        CHANNELS 3 Zrotation Xrotation Yrotation
        JOINT Spine
        {
            OFFSET 0.0 0.0 0.21818037331104279
            CHANNELS 3 Zrotation Xrotation Yrotation
            JOINT Spine1
            {
                OFFSET 0.0 0.0 0.2575209140777588
                CHANNELS 3 Zrotation Xrotation Yrotation
                JOINT LeftShoulder
                {
                    OFFSET 0.1 0.0 0.0
                    CHANNELS 3 Zrotation Xrotation Yrotation
                    JOINT LeftArm
                    {
                        OFFSET 0.15611585974693298 0.0 0.0
                        CHANNELS 3 Zrotation Xrotation Yrotation
                        JOINT LeftForeArm
                        {
                            OFFSET 0.29298532009124756 0.0 0.0
                            CHANNELS 3 Zrotation Xrotation Yrotation
                            JOINT LeftHand
                            {
                                OFFSET 0.20036311447620392 0.0 0.0
                                CHANNELS 3 Zrotation Xrotation Yrotation
                                End Site
                                {
                                    OFFSET 0.1 0.0 0.0
                                }
                            }
                        }
                    }
                }
                JOINT Neck
                {
                    OFFSET 0.0 0.0 0.1
                    CHANNELS 3 Zrotation Xrotation Yrotation
                    JOINT Neck1
                    {
                        OFFSET 0.0 0.0 0.1127258688211441
                        CHANNELS 3 Zrotation Xrotation Yrotation
                        End Site
                        {
                            OFFSET 0.0 0.0 0.0735974982380867
                        }
                    }
                }
                JOINT RightShoulder
                {
                    OFFSET -0.1 0.0 0.0
                    CHANNELS 3 Zrotation Xrotation Yrotation
                    JOINT RightArm
                    {
                        OFFSET -0.15611585974693298 0.0 0.0
                        CHANNELS 3 Zrotation Xrotation Yrotation
                        JOINT RightForeArm
                        {
                            OFFSET -0.29298532009124756 0.0 0.0
                            CHANNELS 3 Zrotation Xrotation Yrotation
                            JOINT RightHand
                            {
                                OFFSET -0.20036311447620392 0.0 0.0
                                CHANNELS 3 Zrotation Xrotation Yrotation
                                End Site
                                {
                                    OFFSET -0.1 0.0 0.0
                                }
                            }
                        }
                    }
                }
            }
        }
    }
    JOINT RightHipJoint
    {
        OFFSET -0.1 0.0 0.0
        CHANNELS 3 Zrotation Xrotation Yrotation
        JOINT RightUpLeg
        {
            OFFSET -0.11917220056056976 0.0 0.0
            CHANNELS 3 Zrotation Xrotation Yrotation
            JOINT RightLeg
            {
                OFFSET 0.0 0.0 -0.4279662072658539
                CHANNELS 3 Zrotation Xrotation Yrotation
                JOINT RightFoot
                {
                    OFFSET 0.0 0.0 -0.44216209650039673
                    CHANNELS 3 Zrotation Xrotation Yrotation
                    End Site
                    {
                        OFFSET 0.0 -0.1 0.0
                    }
                }
            }
        }
    }
}
MOTION
Frames: 4
Frame Time: 0.03333333333333333
-0.0 -0.0 0.0 -2.4364414731567656e-07 -1.5064948010833554 0.5661417960680588 -1.685927791988438e-35 1.9879073401809308e-16 9.718415450486286e-18 2.3008976720396634 8.732622607884247 -2.069932684218083 -0.15331823356102828 4.393167111609661 0.5498934860383521 3.3675432571793813e-37 1.5530052155583576e-18 -2.4848083448933722e-17 -1.685927791988438e-35 1.9879073401809308e-16 9.718415450486286e-18 0.07592667621943754 7.638252223104849 -6.94818800474076 2.0444611325731983 3.363427973062303e-07 -4.565606670857566e-07 -1.987846675914698e-16 -8.075627120903461e-16 -2.857529596627378e-16 -4.845153591700242 13.575614496952657 86.78019493085378 -49.352679308330124 3.346939278929073e-08 1.519529972855842e-06 0.0 0.0 -2.7829853462805768e-15 -1.987846675914698e-16 -8.075627120903461e-16 -2.857529596627378e-16 7.008802100396026 -4.900686335450983 0.4068029431239325 -1.987846675914698e-16 -8.075627120903461e-16 -2.857529596627378e-16 4.364657250552051 22.757673611154722 -77.67837429175178 55.62370074071757 -2.103030685003484e-06 -1.453573426945363e-06 3.1805546814635164e-15 -7.724336021587778e-32 -2.7829853462805768e-15 -1.685927791988438e-35 1.9879073401809308e-16 9.718415450486286e-18 -2.0510980680489515 7.060384624855293 -12.666601333049273 -1.3850675834790935 6.701076084692093 8.987066437788442 0.0 0.0 -1.987846675914698e-16
-0.0 -0.0 0.0 -1.2461308267838317e-07 -1.4975143568189782 0.5765651078353803 1.3289350507934837e-39 6.066426623274835e-21 -2.5102873367111267e-17 2.2630527174419557 8.813661054062418 -2.0514760610139855 -0.1464605061846757 4.278495510979358 0.5312479140447094 3.975693351829397e-16 1.7241821476758432e-34 4.969616689786746e-17 1.3289350507934837e-39 6.066426623274835e-21 -2.5102873367111267e-17 0.07729149955467875 7.6350165676714425 -6.978924981681376 1.9733624759437425 2.057583196889915e-07 -3.960374144824409e-07 6.120846624249243e-33 -7.951386703658791e-16 8.82106962437147e-16 -4.8097278931791045 13.524059306896067 86.76990542022367 -49.28156386662123 -3.057121706216521e-07 6.659163169828204e-08 -3.1805546814635168e-15 -3.1805546814635168e-15 4.770832022195275e-15 6.120846624249243e-33 -7.951386703658791e-16 8.82106962437147e-16 7.1150276171167866 -5.2567292725002845 0.3960344081155247 6.120846624249243e-33 -7.951386703658791e-16 8.82106962437147e-16 4.468848552839222 22.831172263803015 -77.65734172297405 55.59430011790428 -9.33405523431231e-07 1.1717536561881616e-06 -3.1805546814635164e-15 -6.361109362927033e-15 3.975693351829394e-16 1.3289350507934837e-39 6.066426623274835e-21 -2.5102873367111267e-17 -2.010141219016173 7.104052624645769 -12.685377873225601 -1.3665518529182235 6.602587894500999 8.978361520168233 3.975693351829396e-16 -1.5902773407317584e-15 -1.4908850069360235e-16
-0.0 -0.0 0.0 1.2190159349593227e-06 -1.473061843867518 0.5918457759061932 -1.8716852286187587e-39 -6.066426623274833e-21 -3.535513436044573e-17 2.207324092552649 8.867840327924844 -2.0427654485973075 -0.13772065407031645 4.15638011601056 0.5090261354364762 0.0 0.0 -2.4848083448933725e-17 -1.8716852286187587e-39 -6.066426623274833e-21 -3.535513436044573e-17 0.07931601732797858 7.6327275687445395 -7.0113860635922585 1.9044064566520038 -1.1561062902929428e-07 3.434679897168297e-07 -1.987846675914698e-16 -8.620910738379216e-35 4.969616689786745e-17 -4.758894194362699 13.481647732683419 86.75940196439757 -49.23953212049409 -9.201624718917298e-07 -4.6508026633201255e-06 0.0 0.0 -2.3854160110976376e-15 -1.987846675914698e-16 -8.620910738379216e-35 4.969616689786745e-17 7.216218502785803 -5.538628183852242 0.39653857303230994 -1.987846675914698e-16 -8.620910738379216e-35 4.969616689786745e-17 4.579342480956483 22.889194970207505 -77.64124527369772 55.55986254909321 -2.8275383766108356e-06 -4.190220956434963e-06 -3.1805546814635164e-15 3.1805546814635168e-15 -7.951386703658792e-15 -1.8716852286187587e-39 -6.066426623274833e-21 -3.535513436044573e-17 -1.951098512775507 7.125049017089345 -12.715857263446443 -1.3495884030935335 6.492178868649911 8.960602454756968 0.0 0.0 6.957463365701442e-16
-0.0 -0.0 0.0 2.9224496505544213e-06 -1.467175312054734 0.5982159302528375 1.5530052155583578e-18 1.987786011648465e-16 -2.6328291545012784e-18 2.189300626502126 8.935599509954997 -2.03499374893734 -0.1308708841599475 4.031266739579433 0.4804696474507814 6.903463677217731e-34 1.5918303459473164e-15 -4.9696166897867443e-17 1.5530052155583578e-18 1.987786011648465e-16 -2.6328291545012784e-18 0.08038435117812058 7.65291686309317 -7.036216388155287 1.836564002263696 6.878686403389139e-07 -3.350727161664944e-07 1.9878466759146985e-16 -1.2424041724466865e-17 -5.839299610499426e-16 -4.69838371911241 13.450863851156091 86.75465784355278 -49.212391980790905 5.999826024735205e-07 -1.5666716338179044e-06 0.0 0.0 2.3854160110976376e-15 1.9878466759146985e-16 -1.2424041724466865e-17 -5.839299610499426e-16 7.31414529019829 -5.756547646003148 0.40608067622221844 1.9878466759146985e-16 -1.2424041724466865e-17 -5.839299610499426e-16 4.695719069029671 22.93967628820354 -77.62941656528014 55.51234972190094 -1.6812692509291127e-06 3.569185260501985e-07 3.1805546814635168e-15 3.310429723537619e-32 1.1927080055488188e-15 1.5530052155583578e-18 1.987786011648465e-16 -2.6328291545012784e-18 -1.9291061833100203 7.174598080677764 -12.733677946497998 -1.3273594248607221 6.3671869617339 8.940673890653494 7.543296896081814e-35 -1.2424041724466861e-17 6.957463365701442e-16
